# xmcd
#
# Track frame offsets: 
#        150
#        14756
#        31809
#        51398
#        71010
#        89774
#        109031
#        132800
#        149318
#        163750
#        189808
#        209818
#        223944
#        253614
#        273953
#
# Disc length: 3904 seconds
#
# Revision: 0
# Processed by: cddbd v1.5.1PL2 Copyright (c) Steve Scherf et al.
# Submitted via: ExactAudioCopy v0.95b3
#
DISCID=ea0f3e0f
DTITLE=Simply Red - Simplified
DYEAR=2005
DGENRE=Pop
TTITLE0=Perfect Love
TTITLE1=Something Got Me Started
TTITLE2=Holding Back The Years
TTITLE3=More
TTITLE4=A Song For Your
TTITLE5=Your Mirror
TTITLE6=Fairground
TTITLE7=My Perfect Love
TTITLE8=Smile
TTITLE9=Sad Old Red
TTITLE10=For Your Babies
TTITLE11=Ev'ry Time We Say Goodbye
TTITLE12=Jericho (Bonus Hits)
TTITLE13=It's Only Love (Bonus Hits)
TTITLE14=A New Flame (Bonus Hits)
EXTD=
EXTT0=
EXTT1=
EXTT2=
EXTT3=
EXTT4=
EXTT5=
EXTT6=
EXTT7=
EXTT8=
EXTT9=
EXTT10=
EXTT11=
EXTT12=
EXTT13=
EXTT14=
PLAYORDER=
